<svg xmlns="http://www.w3.org/2000/svg" viewBox="0 0 555 37.1"><defs><style>.cls-1{fill:#fff;}</style></defs><title>Asset 11</title><g id="Layer_2" data-name="Layer 2"><g id="Layer_2-2" data-name="Layer 2"><path class="cls-1" d="M24,26.88v9H0v-34H23v10H11v3H22v8H11v4Z"/><path class="cls-1" d="M43,11.3V21.38c-6.91-1.2-7,3-7,6.1v8.4H26v-24H36v3.84A8.23,8.23,0,0,1,43,11.3Z"/><path class="cls-1" d="M71,20.87v15H61V23.63c0-1.92-.9-3.36-3-3.36s-3,1.44-3,3.36V35.88H45v-24H55v2.46a8.63,8.63,0,0,1,6.84-3C69.33,11.31,71,17.37,71,20.87Z"/><path class="cls-1" d="M73.36,4.95a4.94,4.94,0,1,1,4.94,5A4.94,4.94,0,0,1,73.36,4.95ZM73,11.88H83v24H73Z"/><path class="cls-1" d="M110.85,25.88H94.34c.67,2.06,2.26,3.26,4.85,3.26a5.35,5.35,0,0,0,4.51-2L110,30.87a12.77,12.77,0,0,1-10.8,5.42C90.4,36.29,85,30.77,85,23.52A12.48,12.48,0,0,1,97.94,10.75C105.52,10.75,111.81,15.6,110.85,25.88Zm-8.78-4a3.71,3.71,0,0,0-3.94-3.26c-2,0-3.31,1.25-3.84,3.26Z"/><path class="cls-1" d="M150,2.88V23c0,9.75-4.71,14.11-13.75,14.11-8.25,0-13.65-5.18-13.85-11.76l10.36-1.92A3.15,3.15,0,0,0,136,26.59c2.46,0,3-1.78,3-3.6V2.88Z"/><path class="cls-1" d="M177.86,25.88H161.34c.67,2.06,2.26,3.26,4.85,3.26a5.35,5.35,0,0,0,4.51-2L177,30.87a12.77,12.77,0,0,1-10.8,5.42c-8.78,0-14.16-5.52-14.16-12.77a12.48,12.48,0,0,1,12.91-12.77C172.53,10.75,178.82,15.6,177.86,25.88Zm-8.78-4a3.71,3.71,0,0,0-3.94-3.26c-2,0-3.31,1.25-3.84,3.26Z"/><path class="cls-1" d="M203,20.43V35.88H193V33.52c-1.36,2-4.44,3-6.67,3-2.73,0-8.74-1-8.74-7.3,0-8.33,11.21-8.33,12.73-8.33H193c0-2.16-1.36-3.14-3.28-3.14a8.05,8.05,0,0,0-4.6,1.37l-6-4A16.06,16.06,0,0,1,191,10.43C199.21,10.43,203,14.5,203,20.43Zm-10,8.08V25.88h-.19c-3.84,0-4.9,1.06-4.9,2.45,0,.72.43,1.58,2,1.58A4.34,4.34,0,0,0,193,28.52Z"/><path class="cls-1" d="M226.72,28.42c0,5.57-4.66,8.3-11.81,8.3-4.7,0-10.18-1.34-11.23-5.66l8.21-2.54a2.7,2.7,0,0,0,2.83,1.68c1.44,0,2.26-.58,2.26-1.39,0-1.3-2-1.39-4.46-1.92-4.8-1-8.11-2.54-8.11-7.58,0-5.42,5-8.11,11.19-8.11,4.22,0,8.93,2,9.94,6.1l-7.44,1.82a2.34,2.34,0,0,0-2.4-1.54c-1.34,0-2.16.58-2.16,1.44,0,1.15,1.39,1.34,3.36,1.73C223,22,226.72,23.71,226.72,28.42Z"/><path class="cls-1" d="M254,20.48v15.4H244V23.63c0-1.92-.9-3.36-3-3.36s-3,1.44-3,3.36V35.88H228v-34h10v11.9a8.55,8.55,0,0,1,6.84-3.11C252.33,10.67,254,16.88,254,20.48Z"/><path class="cls-1" d="M301.91,1.88l-11.37,34H277.28l-11.37-34h11.71l6.31,22.68L290.2,1.88Z"/><path class="cls-1" d="M302.51,4.95a4.94,4.94,0,1,1,4.94,5A4.94,4.94,0,0,1,302.51,4.95ZM302,11.88h10v24H302Z"/><path class="cls-1" d="M325,1.88v34H315v-34Z"/><path class="cls-1" d="M338,1.88v34H328v-34Z"/><path class="cls-1" d="M364,20.43V35.88H354V33.52c-1.36,2-4.44,3-6.67,3-2.73,0-8.74-1-8.74-7.3,0-8.33,11.21-8.33,12.73-8.33H354c0-2.16-1.36-3.14-3.28-3.14a8.05,8.05,0,0,0-4.6,1.37l-6-4A16.06,16.06,0,0,1,352,10.43C360.21,10.43,364,14.5,364,20.43Zm-10,8.08V25.88h-.19c-3.84,0-4.9,1.06-4.9,2.45,0,.72.43,1.58,2,1.58A4.34,4.34,0,0,0,354,28.52Z"/><path class="cls-1" d="M392,20.48v15.4H382v-12c.43-1.92-.48-3.36-2.64-3.36S377,23.86,377,23.86v12H367v-34h9v11.9a8.55,8.55,0,0,1,6.84-3.11C390.33,10.67,392,16.88,392,20.48Z"/><path class="cls-1" d="M419.72,25.88H403.21c.67,2.06,2.26,3.26,4.85,3.26a5.35,5.35,0,0,0,4.51-2l6.29,3.74a12.77,12.77,0,0,1-10.8,5.42c-8.78,0-14.16-5.52-14.16-12.77a12.48,12.48,0,0,1,12.91-12.77C414.4,10.75,420.69,15.6,419.72,25.88Zm-8.78-4A3.71,3.71,0,0,0,407,18.61c-2,0-3.31,1.25-3.84,3.26Z"/><path class="cls-1" d="M439,11.3V21.38c-6.91-1.2-7,3-7,6.1v8.4H422v-24h10v3.84A8.23,8.23,0,0,1,439,11.3Z"/><path class="cls-1" d="M479,20.87v15H469V22.77a2.5,2.5,0,0,0-5,0V35.88h-9V22.77a2.5,2.5,0,0,0-5,0V35.88H440v-24h10v2.6a6.58,6.58,0,0,1,6.09-3.17c3.41,0,5.46,1.28,6.68,3a9.52,9.52,0,0,1,7.36-3C477.59,11.31,479,17.37,479,20.87Z"/><path class="cls-1" d="M507.47,24c0,7.54-5.81,12.77-13.44,12.77S480.63,31.49,480.63,24,486.44,11.19,494,11.19,507.47,16.37,507.47,24ZM498,24a3.91,3.91,0,1,0-7.82,0A3.91,3.91,0,1,0,498,24Z"/><path class="cls-1" d="M530.56,28.42c0,5.57-4.66,8.3-11.81,8.3-4.7,0-10.18-1.34-11.23-5.66l8.21-2.54a2.7,2.7,0,0,0,2.83,1.68c1.44,0,2.26-.58,2.26-1.39,0-1.3-2-1.39-4.46-1.92-4.8-1-8.11-2.54-8.11-7.58,0-5.42,5-8.11,11.19-8.11,4.22,0,8.93,2,9.94,6.1l-7.44,1.82a2.34,2.34,0,0,0-2.4-1.54c-1.34,0-2.16.58-2.16,1.44,0,1.15,1.39,1.34,3.36,1.73C526.86,22,530.56,23.71,530.56,28.42Z"/><path class="cls-1" d="M555,20.43V35.88H545V33.52c-1.36,2-4.44,3-6.67,3-2.73,0-8.74-1-8.74-7.3,0-8.33,11.21-8.33,12.73-8.33H545c0-2.16-1.36-3.14-3.28-3.14a8.05,8.05,0,0,0-4.6,1.37l-6-4A16.06,16.06,0,0,1,543,10.43C551.21,10.43,555,14.5,555,20.43Zm-10,8.08V25.88h-.19c-3.84,0-4.9,1.06-4.9,2.45,0,.72.43,1.58,2,1.58A4.34,4.34,0,0,0,545,28.52Z"/></g></g></svg>