<svg id="ekQeb3lox0q1" xmlns="http://www.w3.org/2000/svg" xmlns:xlink="http://www.w3.org/1999/xlink" viewBox="0 0 1019.4842 436.68123" shape-rendering="geometricPrecision" text-rendering="geometricPrecision"><style><![CDATA[#ekQeb3lox0q16 {animation: ekQeb3lox0q16_c_o 3000ms linear infinite normal forwards}@keyframes ekQeb3lox0q16_c_o { 0% {opacity: 0} 33.333333% {opacity: 1} 66.666667% {opacity: 0} 100% {opacity: 1}} #ekQeb3lox0q17 {animation: ekQeb3lox0q17_c_o 3000ms linear infinite normal forwards}@keyframes ekQeb3lox0q17_c_o { 0% {opacity: 0} 33.333333% {opacity: 1} 66.666667% {opacity: 0} 100% {opacity: 1}} #ekQeb3lox0q18 {animation: ekQeb3lox0q18_c_o 3000ms linear infinite normal forwards}@keyframes ekQeb3lox0q18_c_o { 0% {opacity: 1} 33.333333% {opacity: 1} 66.666667% {opacity: 0} 100% {opacity: 1}} #ekQeb3lox0q19 {animation: ekQeb3lox0q19_c_o 3000ms linear infinite normal forwards}@keyframes ekQeb3lox0q19_c_o { 0% {opacity: 0} 33.333333% {opacity: 1} 66.666667% {opacity: 0} 100% {opacity: 1}} #ekQeb3lox0q20 {animation: ekQeb3lox0q20_c_o 3000ms linear infinite normal forwards}@keyframes ekQeb3lox0q20_c_o { 0% {opacity: 1} 33.333333% {opacity: 0} 66.666667% {opacity: 1} 100% {opacity: 0}} #ekQeb3lox0q21 {animation: ekQeb3lox0q21_c_o 3000ms linear infinite normal forwards}@keyframes ekQeb3lox0q21_c_o { 0% {opacity: 1} 33.333333% {opacity: 0} 66.666667% {opacity: 1} 100% {opacity: 0}}]]></style><path id="ekQeb3lox0q2" d="M314.02808,475.27364C314.053468,471.62025,312.034402,468.2592,308.797069,466.565807C305.559735,464.872414,301.647384,465.130842,298.660918,467.235344C295.674452,469.339846,294.115024,472.937271,294.62074,476.55558L266.60635,513.24165C264.162127,518.129639,264.885491,524.006459,268.4421,528.15582L270.63969,530.71936L280.72269,528.70269L292.15063,518.61938L290.806,507.19164L304.9227,485.0084L304.90445,484.99248C310.03281,484.66589,314.025815,480.412388,314.02808,475.27364Z" transform="matrix(1 0 0 1 -90.2579 -231.659)" fill="rgb(255,185,185)" stroke="none" stroke-width="1"/><polygon id="ekQeb3lox0q3" points="30.041,422.968 25.468,405.984 88.8,380.265 95.549,405.331 30.041,422.968" fill="rgb(255,184,184)" stroke="none" stroke-width="1"/><path id="ekQeb3lox0q4" d="M105.002,663.39128L90.2579,608.62916L90.95054,608.44265C102.72217,605.273671,114.834124,612.246627,118.00454,624.01787L118.00491,624.01922L127.01,657.46609Z" transform="matrix(1 0 0 1 -90.2579 -231.659)" fill="rgb(47,46,65)" stroke="none" stroke-width="1"/><polygon id="ekQeb3lox0q5" points="117.278,420.254 103.054,409.91 136.185,350.121 157.179,365.388 117.278,420.254" fill="rgb(255,184,184)" stroke="none" stroke-width="1"/><path id="ekQeb3lox0q6" d="M201.1368,668.34061L155.27068,634.9853L155.69255,634.40515C162.862844,624.546124,176.667438,622.365665,186.52735,629.53474L186.52849,629.53556L214.54188,649.908Z" transform="matrix(1 0 0 1 -90.2579 -231.659)" fill="rgb(47,46,65)" stroke="none" stroke-width="1"/><path id="ekQeb3lox0q7" d="M328.45025,568.36357L292.65525,533.59094C286.196378,527.316542,276.104399,526.75281,268.98692,532.26884L201.4006,607.3525L207.45078,616.76334L271.98356,573.069L315.67793,630.20767L357.35557,609.36926Z" transform="matrix(1 0 0 1 -90.2579 -231.659)" fill="rgb(47,46,65)" stroke="none" stroke-width="1"/><path id="ekQeb3lox0q8" d="M312.98939,575.75807L286.77266,573.7414L267.78666,569.13868C265.590574,565.712533,261.497915,564.01019,257.519836,564.86819C253.541757,565.72619,250.514631,568.964144,249.926004,572.990903C249.337376,577.017663,251.311003,580.986621,254.877034,582.947412C258.443065,584.908202,262.851758,584.448578,265.93666,581.7944L265.93389,581.80804L277.36182,586.51357L326.43363,603.31908L332.48363,598.61355Z" transform="matrix(1 0 0 1 -90.2579 -231.659)" fill="rgb(255,185,185)" stroke="none" stroke-width="1"/><polygon id="ekQeb3lox0q9" points="285.92,416.699 271.131,426.11 253.653,426.11 172.315,395.86 53.332,417.371 49.971,391.826 158.871,344.099 254.326,375.693 285.92,416.699" fill="rgb(47,46,65)" stroke="none" stroke-width="1"/><circle id="ekQeb3lox0q10" r="26.2166" transform="matrix(1 0 0 1 254.326 227.132)" fill="rgb(255,185,185)" stroke="none" stroke-width="1"/><path id="ekQeb3lox0q11" d="M412.41738,563.46316C412.417066,579.285303,409.923933,595.008604,405.02968,610.05475L403.06682,616.09132L393.65572,659.11342L383.57244,661.80228L376.17802,652.39121L361.38918,641.63571L350.63366,624.158L341.41082,608.791L338.5337,603.99133L328.45039,553.57484L290.13386,532.06384L277.36169,530.04717L280.05058,522.65275L291.47832,507.19169L302.906,505.8472L306.26711,503.15832L308.95599,504.50275L323.77856,510.21288L371.83544,489.90888L378.86686,491.05839L403.06674,511.225C409.253255,527.946389,412.419346,545.634032,412.41738,563.46316Z" transform="matrix(1 0 0 1 -90.2579 -231.659)" fill="rgb(204,204,204)" stroke="none" stroke-width="1"/><polygon id="ekQeb3lox0q12" style="isolation:isolate" points="314.825,325.949 289.281,342.754 251.153,377.131 248.276,372.332 240.209,331.999 242.226,331.999 263.065,293.683 314.825,325.949" opacity="0.1" fill="rgb(0,0,0)" stroke="none" stroke-width="1"/><polygon id="ekQeb3lox0q13" points="263.065,289.649 242.226,327.965 230.126,341.41 219.371,344.099 248.276,375.693 289.281,338.721 314.825,321.915 263.065,289.649" fill="rgb(204,204,204)" stroke="none" stroke-width="1"/><path id="ekQeb3lox0q14" d="M324.19252,439.29866L321.35202,440.39152C320.481182,439.801901,319.880237,438.890491,319.681386,437.857792C319.482536,436.825092,319.702069,435.755697,320.29169,434.88486Q320.31464,434.85093,320.3383,434.81751L315.08913,434.57187C321.905219,425.493885,332.286455,419.774049,343.601801,418.862006C354.917147,417.949964,366.080478,421.93326,374.26254,429.80236C374.50154,428.97926,377.10673,430.58066,378.17037,432.20445C378.52776,430.86508,380.97047,437.33966,381.83444,441.91633C382.23444,440.39249,383.77235,442.85253,382.425,445.21303C383.2787,445.08831,383.66431,447.2725,383.00343,448.48936C383.93743,448.05058,383.77997,450.65791,382.76734,452.40036C384.10004,452.28195,382.65364,479.73158,362.65364,477.73158C361.26128,471.33409,361.65364,471.73158,360.01407,463.50519C359.25095,462.69519,358.41525,461.9574,357.58092,461.22094L353.06833,457.23764C347.82103,452.60582,343.0477,446.8892,336.0574,445.15809C331.25347,443.96841,328.21597,443.69982,330.83396,438.28658C328.46864,439.27364,326.25985,440.74151,323.87333,441.65827C323.90539,440.90187,324.23894,440.05545,324.19252,439.29866Z" transform="matrix(1 0 0 1 -90.2579 -231.659)" fill="rgb(47,46,65)" stroke="none" stroke-width="1"/><circle id="ekQeb3lox0q15" r="4.70554" transform="matrix(1 0 0 1 267.434 230.157)" fill="rgb(255,185,185)" stroke="none" stroke-width="1"/><rect id="ekQeb3lox0q16" style="isolation:isolate" width="21.6101" height="21.6101" rx="0" ry="0" transform="matrix(0.082105 -0.996624 0.996624 0.082105 48.305237 146.246039)" opacity="0" fill="rgb(230,230,230)" stroke="none" stroke-width="1"/><path id="ekQeb3lox0q17" d="M124.34354,362.13134L150.52636,363.87502L148.78267,390.05784L122.59985,388.31416ZM149.31216,364.9376L125.40611,363.34554L123.81405,387.25154L147.7201,388.8436Z" transform="matrix(0.999877 0.015698 -0.015698 0.999877 -90.2579 -231.659)" opacity="0" fill="rgb(204,204,204)" stroke="none" stroke-width="1"/><rect id="ekQeb3lox0q18" style="isolation:isolate" width="21.6101" height="21.6101" rx="0" ry="0" transform="matrix(0.977685 -0.210075 0.210075 0.977685 148.722742 59.623148)" fill="rgb(230,230,230)" stroke="none" stroke-width="1"/><path id="ekQeb3lox0q19" d="M245.27842,276.50957L250.79097,302.16483L225.13571,307.67737L219.62317,282.02211ZM249.43585,301.28907L244.40265,277.86471L220.97828,282.8979L226.01147,306.32228Z" transform="matrix(1 0 0 1 -90.2579 -231.659)" opacity="0" fill="rgb(204,204,204)" stroke="none" stroke-width="1"/><rect id="ekQeb3lox0q20" style="isolation:isolate" width="21.6101" height="21.6101" rx="0" ry="0" transform="matrix(0.729839 -0.683619 0.683619 0.729839 131.877134 171.320393)" fill="rgb(230,230,230)" stroke="none" stroke-width="1"/><path id="ekQeb3lox0q21" d="M253.81456,385.99664L234.663,403.93538L216.72427,384.78382L235.87583,366.8451ZM234.71571,402.32274L252.20192,385.94391L235.82308,368.45773L218.33687,384.83657Z" transform="matrix(1 0 0 1 -90.2579 -231.659)" fill="rgb(204,204,204)" stroke="none" stroke-width="1"/><path id="ekQeb3lox0q22" d="M1053.535,231.65939L414.15223,231.65939C409.484817,231.659385,405.008567,233.513504,401.708205,236.813861C398.407844,240.114219,396.55372,244.590467,396.55372,249.25788L396.55372,605.51008C396.553712,610.177503,398.407831,614.653764,401.708192,617.954136C405.008553,621.254508,409.484807,623.108642,414.15223,623.10865L1053.535,623.10865C1063.254401,623.108622,1071.133516,615.229481,1071.13351,605.51008L1071.13351,249.25788C1071.133493,239.538501,1063.254379,231.659396,1053.535,231.65939Z" transform="matrix(1 0 0 1 -90.2579 -231.659)" fill="rgb(63,61,86)" stroke="none" stroke-width="1"/><rect id="ekQeb3lox0q23" width="627.391" height="353.913" rx="0" ry="0" transform="matrix(1 0 0 1 329.89 31.1014)" fill="rgb(255,255,255)" stroke="none" stroke-width="1"/><circle id="ekQeb3lox0q24" r="6.43477" transform="matrix(1 0 0 1 643.049 15.0145)" fill="rgb(255,255,255)" stroke="none" stroke-width="1"/><polygon id="ekQeb3lox0q25" style="isolation:isolate" points="777.858,385.015 329.89,385.015 329.89,31.102 777.858,385.015" fill="rgb(242,242,242)" stroke="none" stroke-width="1"/><circle id="ekQeb3lox0q26" r="60.3068" transform="matrix(1 0 0 1 428.058 298.224)" fill="rgb(23,27,35)" stroke="none" stroke-width="1"/><path id="ekQeb3lox0q27" d="M531.74082,575.21C490.310757,575.209978,456.725072,541.62426,456.72509,500.194197C456.725108,458.764134,490.310824,425.178445,531.740887,425.17846C573.17095,425.178475,606.756641,458.764187,606.75663,500.19425C606.756622,520.089672,598.853189,539.170226,584.784996,553.238408C570.716802,567.30659,551.636242,575.210008,531.74082,575.21ZM531.74082,426.159C490.852324,426.158994,457.70564,459.305657,457.70562,500.194153C457.7056,541.082649,490.852251,574.229345,531.740747,574.22938C572.629243,574.229415,605.77595,541.082776,605.776,500.19428C605.776008,480.558917,597.975893,461.727766,584.091594,447.843469C570.207295,433.959171,551.376143,426.159059,531.74078,426.15907Z" transform="matrix(1 0 0 1 -90.2579 -231.659)" fill="rgb(63,61,86)" stroke="none" stroke-width="1"/><rect id="ekQeb3lox0q28" width="58.6052" height="12.2459" rx="0" ry="0" transform="matrix(1 0 0 1 753.437 214.97)" fill="rgb(63,61,86)" stroke="none" stroke-width="1"/><rect id="ekQeb3lox0q29" width="169.497" height="5.24823" rx="0" ry="0" transform="matrix(1 0 0 1 697.991 148.627)" fill="rgb(63,61,86)" stroke="none" stroke-width="1"/><rect id="ekQeb3lox0q30" width="169.497" height="5.24823" rx="0" ry="0" transform="matrix(1 0 0 1 697.991 169.246)" fill="rgb(63,61,86)" stroke="none" stroke-width="1"/><rect id="ekQeb3lox0q31" width="169.497" height="5.24823" rx="0" ry="0" transform="matrix(1 0 0 1 697.991 189.866)" fill="rgb(63,61,86)" stroke="none" stroke-width="1"/><rect id="ekQeb3lox0q32" width="24.4918" height="24.4917" rx="0" ry="0" transform="matrix(1 0 0 1 888.401 52.2816)" fill="rgb(23,27,35)" stroke="none" stroke-width="1"/><path id="ekQeb3lox0q33" d="M1014.52225,319.8039L984.78225,319.8039L984.78225,290.0639L1014.52225,290.0639ZM986.07535,318.5109L1013.22916,318.5109L1013.22916,291.357L986.07529,291.357Z" transform="matrix(1 0 0 1 -90.2579 -231.659)" fill="rgb(204,204,204)" stroke="none" stroke-width="1"/><path id="ekQeb3lox0q34" d="M1088.74918,610.23908L1027.51981,610.23908L1027.51981,605.82752C1027.519818,605.595546,1027.427674,605.373069,1027.263649,605.209033C1027.099624,605.044997,1026.877154,604.952838,1026.64518,604.95283L1005.65218,604.95283C1005.420195,604.952809,1005.197704,605.044946,1005.033654,605.208972C1004.869604,605.372998,1004.777433,605.595475,1004.77742,605.82746L1004.77742,610.23908L991.657,610.23908L991.657,605.82752C991.657003,605.595535,991.564848,605.373051,991.400809,605.209014C991.23677,605.044977,991.014285,604.952825,990.7823,604.95283L969.7894,604.95283C969.557416,604.952825,969.334932,605.044978,969.170895,605.209015C969.006858,605.373052,968.914705,605.595536,968.91471,605.82752L968.91471,605.82752L968.91471,610.23908L955.79416,610.23908L955.79416,605.82752C955.794165,605.595536,955.702012,605.373052,955.537975,605.209015C955.373938,605.044978,955.151454,604.952825,954.91947,604.95283L933.92647,604.95283C933.694485,604.952825,933.472,605.044977,933.307961,605.209014C933.143922,605.373051,933.051767,605.595535,933.05177,605.82752L933.05177,605.82752L933.05177,610.23908L919.93125,610.23908L919.93125,605.82752C919.931253,605.595535,919.839098,605.373051,919.675059,605.209014C919.51102,605.044977,919.288535,604.952825,919.05655,604.95283L898.06363,604.95283C897.831656,604.952822,897.609179,605.044966,897.445143,605.208991C897.281107,605.373016,897.188948,605.595486,897.18894,605.82746L897.18894,610.23908L884.0684,610.23908L884.0684,605.82752C884.068403,605.595535,883.976248,605.373051,883.812209,605.209014C883.64817,605.044977,883.425685,604.952825,883.1937,604.95283L862.20078,604.95283C861.968796,604.952825,861.746312,605.044978,861.582275,605.209015C861.418238,605.373052,861.326085,605.595536,861.32609,605.82752L861.32609,605.82752L861.32609,610.23908L848.20548,610.23908L848.20548,605.82752C848.205485,605.595536,848.113332,605.373052,847.949295,605.209015C847.785258,605.044978,847.562774,604.952825,847.33079,604.95283L826.33787,604.95283C826.105885,604.952825,825.8834,605.044977,825.719361,605.209014C825.555322,605.373051,825.463167,605.595535,825.46317,605.82752L825.46317,605.82752L825.46317,610.23908L812.34263,610.23908L812.34263,605.82752C812.342633,605.595535,812.250478,605.373051,812.086439,605.209014C811.9224,605.044977,811.699915,604.952825,811.46793,604.95283L647.02347,604.95283C646.791486,604.952825,646.569002,605.044978,646.404965,605.209015C646.240928,605.373052,646.148775,605.595536,646.14878,605.82752L646.14878,605.82752L646.14878,610.23908L633.02817,610.23908L633.02817,605.82752C633.028175,605.595536,632.936022,605.373052,632.771985,605.209015C632.607948,605.044978,632.385464,604.952825,632.15348,604.95283L611.16062,604.95283C610.928635,604.952825,610.70615,605.044977,610.542111,605.209014C610.378072,605.373051,610.285917,605.595535,610.28592,605.82752L610.28592,605.82752L610.28592,610.23908L597.16532,610.23908L597.16532,605.82752C597.165328,605.595546,597.073184,605.373069,596.909159,605.209033C596.745134,605.044997,596.522664,604.952838,596.29069,604.95283L575.29769,604.95283C575.065706,604.952825,574.843222,605.044978,574.679185,605.209015C574.515148,605.373052,574.422995,605.595536,574.423,605.82752L574.423,605.82752L574.423,610.23908L561.3024,610.23908L561.3024,605.82752C561.302405,605.595536,561.210252,605.373052,561.046215,605.209015C560.882178,605.044978,560.659694,604.952825,560.42771,604.95283L539.43479,604.95283C539.202805,604.952825,538.98032,605.044977,538.816281,605.209014C538.652242,605.373051,538.560087,605.595535,538.56009,605.82752L538.56009,605.82752L538.56009,610.23908L525.43955,610.23908L525.43955,605.82752C525.439555,605.595536,525.347402,605.373052,525.183365,605.209015C525.019328,605.044978,524.796844,604.952825,524.56486,604.95283L503.57194,604.95283C503.339955,604.952825,503.11747,605.044977,502.953431,605.209014C502.789392,605.373051,502.697237,605.595535,502.69724,605.82752L502.69724,605.82752L502.69724,610.23908L489.57664,610.23908L489.57664,605.82752C489.576643,605.595535,489.484488,605.373051,489.320449,605.209014C489.15641,605.044977,488.933925,604.952825,488.70194,604.95283L467.709,604.95283C467.225943,604.952824,466.834338,605.344403,466.83431,605.82746L466.83431,610.23908L453.71375,610.23908L453.71375,605.82752C453.713755,605.595541,453.621607,605.373062,453.457576,605.209026C453.293545,605.044989,453.071069,604.952833,452.83909,604.95283L431.84617,604.95283C431.36309,604.95283,430.971476,605.34444,430.97147,605.82752L430.97147,605.82752L430.97147,610.23908L390.735,610.23908C379.14095,610.239108,369.74213,619.63795,369.74213,631.232L369.74213,640.7245C369.742158,652.318529,379.140971,661.717338,390.735,661.71736L1088.74916,661.71736C1100.343204,661.717354,1109.742041,652.318544,1109.74208,640.7245L1109.74208,631.232C1109.742085,625.664333,1107.530342,620.324702,1103.593409,616.387765C1099.656476,612.450828,1094.316847,610.23908,1088.74918,610.23908Z" transform="matrix(1 0 0 1 -90.2579 -231.659)" fill="rgb(63,61,86)" stroke="none" stroke-width="1"/></svg>